<svg width="600" height="112" viewBox="0 0 600 112" fill="none" xmlns="http://www.w3.org/2000/svg">
<path d="M16.0598 59.4272C19.6764 56.3718 20.4709 51.3885 18.4598 47.483C17.8431 46.2831 18.0265 44.822 18.982 43.8664L33.2817 29.5667C35.6206 27.2279 39.1038 26.3946 42.2149 27.5279C47.1426 29.3223 52.9091 28.1334 56.7257 23.9668C61.4312 18.8225 61.3645 10.7782 56.5813 5.7061C51.3647 0.178427 42.6538 0.0839848 37.3205 5.42277C33.5317 9.21158 32.4817 14.7059 34.1706 19.4392C35.2817 22.5446 34.5984 26.0057 32.2651 28.3334L17.8931 42.7054C16.9154 43.6831 15.4265 43.8831 14.1988 43.2553C10.5322 41.3887 5.92671 41.9831 2.86011 45.0553C-1.10648 49.0219 -0.950928 55.5495 3.33232 59.3106C6.93225 62.4605 12.4044 62.5216 16.0598 59.4272Z" fill="#2B318D"/>
<path d="M86.0083 53.2326C81.8417 57.0492 80.6529 62.8157 82.4473 67.7434C83.5806 70.8489 82.7417 74.3377 80.4084 76.6766L66.1087 90.9763C65.1532 91.9318 63.6976 92.1151 62.4921 91.4985C58.5811 89.4874 53.6034 90.2874 50.5479 93.8984C47.4591 97.5539 47.5146 103.032 50.6757 106.626C54.4367 110.904 60.9644 111.059 64.9309 107.098C67.9976 104.032 68.5975 99.4261 66.7309 95.7595C66.1031 94.5262 66.3031 93.0429 67.2809 92.0651L81.6528 77.6932C83.9861 75.3599 87.4416 74.6821 90.5471 75.7877C95.2803 77.4765 100.769 76.4266 104.563 72.6377C109.897 67.3045 109.802 58.5936 104.28 53.377C99.1969 48.5938 91.1526 48.5271 86.0083 53.2326Z" fill="#2B318D"/>
<path d="M79.6099 11.3891C75.4433 15.2057 74.2544 20.9722 76.0488 25.8999C77.1821 29.0054 76.3433 32.4942 74.01 34.8331L59.7103 49.1328C58.7547 50.0883 57.2992 50.2716 56.0937 49.655C52.1826 47.6439 47.205 48.4439 44.1495 52.0549C41.0606 55.7104 41.1162 61.1881 44.2772 64.7825C48.0383 69.0602 54.5659 69.2157 58.5325 65.2547C61.5991 62.1881 62.1991 57.5826 60.3325 53.916C59.7047 52.6827 59.9047 51.1994 60.8825 50.2216L75.2544 35.8497C77.5877 33.5164 81.0432 32.8387 84.1487 33.9442C88.8819 35.633 94.3707 34.5831 98.1651 30.7943C103.498 25.461 103.404 16.7501 97.8817 11.5335C92.7985 6.74473 84.7542 6.67807 79.6099 11.3891Z" fill="#50B748"/>
<path d="M205.157 83.2047L213.718 87.7046C210.912 93.2156 207.668 97.671 203.99 101.054C200.312 104.438 196.173 107.015 191.574 108.782C186.974 110.549 181.774 111.432 175.963 111.432C163.085 111.432 153.019 107.215 145.758 98.7766C138.497 90.3379 134.869 80.7992 134.869 70.1605C134.869 60.1496 137.941 51.2275 144.091 43.3943C151.885 33.4334 162.313 28.4502 175.385 28.4502C188.457 28.4502 199.585 33.5557 207.623 43.7554C213.334 50.9609 216.24 59.9551 216.334 70.7382H145.313C145.508 79.9047 148.436 87.4212 154.102 93.2822C159.769 99.1432 166.763 102.077 175.091 102.077C179.107 102.077 183.018 101.377 186.818 99.9821C190.618 98.5877 193.851 96.7322 196.512 94.4155C199.179 92.0934 202.057 88.3601 205.157 83.2047ZM205.157 61.9495C203.801 56.533 201.829 52.2053 199.235 48.9665C196.646 45.7276 193.218 43.1166 188.957 41.1333C184.696 39.15 180.218 38.1611 175.518 38.1611C167.768 38.1611 161.113 40.6555 155.547 45.6332C151.48 49.2609 148.402 54.6997 146.324 61.9551H205.157V61.9495Z" fill="#2B318D"/>
<path d="M244.115 1.16016H254.27V30.4651H270.376V39.2427H254.27V109.391H244.115V39.2427H230.26V30.4651H244.115V1.16016Z" fill="#2B318D"/>
<path d="M285.607 0H295.763V44.6102C299.874 39.1937 304.396 35.1437 309.329 32.4605C314.262 29.7772 319.607 28.4328 325.362 28.4328C331.118 28.4328 336.495 29.9327 341.067 32.9327C345.64 35.9326 349.012 39.9548 351.184 45.0102C353.362 50.0657 354.451 57.9822 354.451 68.7653V109.387H344.295V71.7375C344.295 62.6432 343.934 56.5767 343.206 53.5267C341.951 48.3046 339.662 44.3769 336.351 41.7381C333.04 39.1048 328.695 37.7826 323.329 37.7826C317.185 37.7826 311.685 39.8159 306.824 43.8769C301.963 47.9379 298.757 52.9712 297.213 58.9655C296.246 62.8376 295.763 69.993 295.763 80.4373V109.381H285.607V0Z" fill="#2B318D"/>
<path d="M413.567 28.4326C425.728 28.4326 435.805 32.8325 443.799 41.6379C451.066 49.6655 454.699 59.1709 454.699 70.1485C454.699 81.126 450.86 90.8092 443.183 99.0534C435.505 107.298 425.633 111.42 413.572 111.42C401.511 111.42 391.567 107.298 383.889 99.0534C376.212 90.8092 372.373 81.1705 372.373 70.1485C372.373 59.1264 376.006 49.7377 383.273 41.7157C391.262 32.8603 401.361 28.4326 413.567 28.4326ZM413.533 38.3713C405.089 38.3713 397.834 41.4935 391.767 47.7267C385.701 53.9654 382.667 61.5097 382.667 70.3596C382.667 76.065 384.051 81.3871 386.817 86.3204C389.584 91.2536 393.317 95.0591 398.028 97.7479C402.734 100.431 407.906 101.776 413.533 101.776C419.161 101.776 424.333 100.431 429.039 97.7479C433.744 95.0646 437.483 91.2536 440.249 86.3204C443.016 81.3871 444.399 76.0706 444.399 70.3596C444.399 61.5097 441.355 53.9654 435.261 47.7267C429.172 41.4935 421.928 38.3713 413.533 38.3713Z" fill="#2B318D"/>
<path d="M513.166 39.0991L506.638 45.8434C501.205 40.5713 495.9 37.938 490.711 37.938C487.411 37.938 484.589 39.0268 482.239 41.2046C479.889 43.3823 478.711 45.9212 478.711 48.8211C478.711 51.3877 479.678 53.8266 481.617 56.1487C483.555 58.5209 487.628 61.2986 493.828 64.493C501.389 68.4096 506.522 72.1817 509.238 75.8095C511.905 79.4872 513.238 83.6204 513.238 88.2148C513.238 94.698 510.961 100.187 506.405 104.681C501.85 109.175 496.161 111.425 489.333 111.425C484.778 111.425 480.433 110.437 476.289 108.453C472.15 106.47 468.722 103.737 466.006 100.253L472.389 92.998C477.578 98.8479 483.078 101.776 488.894 101.776C492.966 101.776 496.433 100.47 499.294 97.859C502.155 95.248 503.583 92.1758 503.583 88.6481C503.583 85.7481 502.638 83.1593 500.75 80.8871C498.861 78.665 494.594 75.8594 487.955 72.4706C480.828 68.7985 475.983 65.1708 473.417 61.5875C470.85 58.0098 469.567 53.921 469.567 49.3266C469.567 43.3323 471.611 38.3491 475.706 34.3825C479.8 30.4215 484.967 28.4326 491.216 28.4326C498.489 28.4326 505.805 31.9881 513.166 39.0991Z" fill="#2B318D"/>
<path d="M531.15 0H541.306V44.6102C545.417 39.1937 549.939 35.1437 554.872 32.4605C559.805 29.7772 565.15 28.4328 570.905 28.4328C576.661 28.4328 582.038 29.9327 586.61 32.9327C591.183 35.9326 594.555 39.9548 596.727 45.0102C598.905 50.0657 599.993 57.9822 599.993 68.7653V109.387H589.838V71.7375C589.838 62.6432 589.477 56.5767 588.749 53.5267C587.494 48.3046 585.205 44.3769 581.894 41.7381C578.583 39.1048 574.238 37.7826 568.872 37.7826C562.728 37.7826 557.228 39.8159 552.367 43.8769C547.506 47.9379 544.3 52.9712 542.756 58.9655C541.789 62.8376 541.306 69.993 541.306 80.4373V109.381H531.15V0Z" fill="#2B318D"/>
</svg>
